<?xml version="1.0" encoding="UTF-8"?>
<svg width="49px" height="49px" viewBox="0 0 49 49" version="1.1" xmlns="http://www.w3.org/2000/svg" xmlns:xlink="http://www.w3.org/1999/xlink">
    <title>Group 8</title>
    <defs>
        <polygon id="path-1" points="0 0 49 0 49 49 0 49"></polygon>
    </defs>
    <g id="一斉配信" stroke="none" stroke-width="1" fill="none" fill-rule="evenodd">
        <g id="PH-FUM-B-1-01.新規服薬中フォロー対象者選択画面" transform="translate(-507.000000, -411.000000)">
            <g id="Group-8" transform="translate(507.000000, 411.000000)">
                <path d="M49,24.5000821 C49,38.0309114 38.0309481,49 24.5,49 C10.9690519,49 0,38.0309114 0,24.5000821 C0,10.9690886 10.9690519,0 24.5,0 C38.0309481,0 49,10.9690886 49,24.5000821" id="Fill-1" fill="#999999"></path>
                <g id="Group-5">
                    <mask id="mask-2" fill="white">
                        <use xlink:href="#path-1"></use>
                    </mask>
                    <g id="Clip-4"></g>
                    <path d="M24.4999918,0.234547448 C11.1200474,0.234547448 0.234693745,11.1200971 0.234693745,24.5000817 C0.234693745,37.8800663 11.1200474,48.7656159 24.4999918,48.7656159 C37.8799363,48.7656159 48.7654533,37.8800663 48.7654533,24.5000817 C48.7654533,11.1200971 37.8799363,0.234547448 24.4999918,0.234547448 M24.4999837,49 C10.9906873,49 -1.63333389e-05,38.0094267 -1.63333389e-05,24.5000817 C-1.63333389e-05,10.9907366 10.9906873,-0.00016333388 24.4999837,-0.00016333388 C38.0094597,-0.00016333388 49,10.9907366 49,24.5000817 C49,38.0094267 38.0094597,49 24.4999837,49" id="Fill-3" fill="#999999" mask="url(#mask-2)"></path>
                </g>
                <path d="M26.1495966,26.1495966 L34.3503209,26.1495966 C35.2613476,26.1495966 36,25.4109442 36,24.5000825 C36,23.5893857 35.2613476,22.8507333 34.3504859,22.8505684 L26.1495966,22.8505684 L26.1495966,14.6495141 C26.1494316,13.7386524 25.4107792,13 24.5000825,13 C23.5890558,13 22.8505684,13.7386524 22.8505684,14.6496791 L22.8505684,22.8505684 L14.6496791,22.8504034 C13.7386524,22.8504034 13,23.5890558 13,24.4999175 C13,24.9555133 13.1847456,25.3678918 13.4833076,25.666289 C13.7817047,25.964851 14.1940833,26.1494316 14.6495141,26.1494316 L22.8505684,26.1495966 L22.8505684,34.3504859 C22.8505684,34.8060817 23.0353139,35.2184602 23.333711,35.5168573 C23.6322731,35.8154194 24.0446516,36 24.5000825,36 C25.4111091,36 26.1495966,35.2613476 26.1495966,34.3503209 L26.1495966,26.1495966 Z" id="Fill-6" fill="#FFFFFF"></path>
            </g>
        </g>
    </g>
</svg>