<?xml version="1.0" encoding="UTF-8"?><svg version="1.1" width="16px" height="21px" viewBox="0 0 16.0 21.0" xmlns="http://www.w3.org/2000/svg" xmlns:xlink="http://www.w3.org/1999/xlink"><defs><clipPath id="i0"><path d="M1842,0 L1842,776 L0,776 L0,0 L1842,0 Z"></path></clipPath><clipPath id="i1"><path d="M8.94143867,0.654294641 L15.9414387,19.6542946 C16.264102,20.5300951 15.3173294,21.3313133 14.5069566,20.8682431 L8.00309555,17.1517511 L1.49923449,20.8682431 C0.688861732,21.3313133 -0.257910874,20.5300951 0.0647524358,19.6542946 L7.06475244,0.654294641 C7.38616033,-0.218098214 8.62003078,-0.218098214 8.94143867,0.654294641 Z M8.00309555,3.89263668 L2.89047652,17.7697455 L7.50695661,15.1317569 C7.81438928,14.956081 8.19180182,14.956081 8.49923449,15.1317569 L13.1157146,17.7697455 L8.00309555,3.89263668 Z"></path></clipPath><clipPath id="i2"><path d="M24,0 L24,24 L0,24 L0,0 L24,0 Z"></path></clipPath></defs><g transform="translate(-924.0 -462.0)"><g clip-path="url(#i0)"><g transform="translate(920.0 460.0)"><g transform="translate(3.996904447379057 2.0)"><g clip-path="url(#i1)"><polygon points="0,0 16.0061911,0 16.0061911,21.0039061 0,21.0039061 0,0" stroke="none" fill="#000000"></polygon><g transform="translate(-3.996904447379057 -2.0)"><g clip-path="url(#i2)"><polygon points="3.99690445,2 20.0030956,2 20.0030956,23.0039061 3.99690445,23.0039061 3.99690445,2" stroke="none" fill="#000000"></polygon></g></g></g></g></g></g></g></svg>