<?xml version="1.0" encoding="UTF-8"?>
<svg width="14px" height="16px" viewBox="0 0 14 16" version="1.1" xmlns="http://www.w3.org/2000/svg" xmlns:xlink="http://www.w3.org/1999/xlink">
    <title>Group 10 Copy 3</title>
    <defs>
        <polygon id="path-1" points="0 1.77635684e-15 13.025 1.77635684e-15 13.025 4.1811 0 4.1811"></polygon>
    </defs>
    <g id="一斉配信" stroke="none" stroke-width="1" fill="none" fill-rule="evenodd">
        <g id="PH-FUM-B-1-04.メッセージ・コンテンツ設定画面＜メッセージ追加時＞" transform="translate(-683.000000, -444.000000)">
            <g id="Group-10-Copy-3" transform="translate(683.000000, 444.000000)">
                <path d="M7.6562,5.3579 L5.4742,5.3579 C5.3812,5.3579 5.3052,5.4329 5.3052,5.5269 L5.3052,15.0189 C5.3052,15.1129 5.3812,15.1879 5.4742,15.1879 L7.6562,15.1879 C7.7502,15.1879 7.8252,15.1129 7.8252,15.0189 L7.8252,5.5269 C7.8252,5.4329 7.7502,5.3579 7.6562,5.3579" id="Fill-1" fill="#64B4E6"></path>
                <path d="M3.7871,5.3579 L1.6051,5.3579 C1.5581,5.3579 1.5141,5.3769 1.4821,5.4109 C1.4501,5.4449 1.4331,5.4909 1.4361,5.5369 L1.9991,15.0289 C2.0051,15.1189 2.0791,15.1879 2.1681,15.1879 L3.7871,15.1879 C3.8811,15.1879 3.9561,15.1129 3.9561,15.0189 L3.9561,5.5269 C3.9561,5.4329 3.8811,5.3579 3.7871,5.3579" id="Fill-3" fill="#64B4E6"></path>
                <path d="M11.5254,5.3579 L9.3434,5.3579 C9.2504,5.3579 9.1744,5.4329 9.1744,5.5269 L9.1744,15.0189 C9.1744,15.1129 9.2504,15.1879 9.3434,15.1879 L10.9624,15.1879 C11.0524,15.1879 11.1264,15.1189 11.1314,15.0289 L11.6944,5.5369 C11.6974,5.4909 11.6804,5.4449 11.6494,5.4109 C11.6164,5.3769 11.5724,5.3579 11.5254,5.3579" id="Fill-5" fill="#64B4E6"></path>
                <g id="Group-9">
                    <mask id="mask-2" fill="white">
                        <use xlink:href="#path-1"></use>
                    </mask>
                    <g id="Clip-8"></g>
                    <path d="M12.8726,1.9331 L8.8376,1.2571 L8.8376,0.1051 C8.8376,0.0461 8.7906,-0.0009 8.7326,-0.0009 L4.2936,-0.0009 C4.2356,-0.0009 4.1876,0.0461 4.1876,0.1051 L4.1876,1.2571 L0.1526,1.9331 C0.0646,1.9481 -0.0004,2.0241 -0.0004,2.1141 L-0.0004,3.9971 C-0.0004,4.0991 0.0816,4.1811 0.1836,4.1811 L12.8426,4.1811 C12.9436,4.1811 13.0256,4.0991 13.0256,3.9971 L13.0256,2.1141 C13.0256,2.0241 12.9606,1.9481 12.8726,1.9331" id="Fill-7" fill="#64B4E6" mask="url(#mask-2)"></path>
                </g>
            </g>
        </g>
    </g>
</svg>