<?xml version="1.0" encoding="UTF-8"?><svg version="1.1" width="20px" height="20px" viewBox="0 0 20.0 20.0" xmlns="http://www.w3.org/2000/svg" xmlns:xlink="http://www.w3.org/1999/xlink"><defs><clipPath id="i0"><path d="M496,0 L496,616 L0,616 L0,0 L496,0 Z"></path></clipPath><clipPath id="i1"><path d="M24,0 L24,24 L0,24 L0,0 L24,0 Z"></path></clipPath><clipPath id="i2"><path d="M10,0 C15.5139999,0 20,4.48600006 20,10 C20,15.5139999 15.5139999,20 10,20 C4.48600006,20 0,15.5139999 0,10 C0,4.48600006 4.48600006,0 10,0 Z M10,2 C5.58900023,2 2,5.58900023 2,10 C2,14.4109998 5.58900023,18 10,18 C14.4109998,18 18,14.4109998 18,10 C18,5.58900023 14.4109998,2 10,2 Z M15,12 C14.3333333,14.6666667 12.6666667,16 10,16 C7.33333333,16 5.66666667,14.6666667 5,12 Z M6.5,7 C7.32842708,7 8,7.67157286 8,8.5 C8,9.32842708 7.32842708,10 6.5,10 C5.67157286,10 5,9.32842708 5,8.5 C5,7.67157286 5.67157286,7 6.5,7 Z M13.493,7 C14.3175611,7 14.9860001,7.66843891 14.9860001,8.49300003 C14.9860001,9.31756115 14.3175611,9.98600006 13.493,9.98600006 C12.6684389,9.98600006 12,9.31756115 12,8.49300003 C12,7.66843891 12.6684389,7 13.493,7 Z"></path></clipPath></defs><g transform="translate(-154.0 -442.0)"><g clip-path="url(#i0)"><g transform="translate(152.0 440.0)"><g clip-path="url(#i1)"><g transform="translate(2.0 2.0)"><g clip-path="url(#i2)"><polygon points="0,0 20,0 20,20 0,20 0,0" stroke="none" fill="#2E3A59"></polygon></g></g></g></g></g></g></svg>