<?xml version="1.0" encoding="UTF-8"?>
<svg width="14px" height="19px" viewBox="0 0 14 19" version="1.1" xmlns="http://www.w3.org/2000/svg" xmlns:xlink="http://www.w3.org/1999/xlink">
    <title>Group 9</title>
    <g id="一斉配信" stroke="none" stroke-width="1" fill="none" fill-rule="evenodd">
        <g id="PH-FUM-B-1-04.メッセージ・コンテンツ設定画面＜メッセージ追加時＞" transform="translate(-638.000000, -388.000000)">
            <g id="Group-9" transform="translate(639.000000, 389.000000)">
                <path d="M10.0923432,17.0440996 L1.90679248,17.0440996 C0.85485846,17.0440996 0,16.1883767 0,15.1364427 L0,4.3128455 C0,3.26091148 0.85485846,2.40518865 1.90679248,2.40518865 L3.1056688,2.40518865 C3.31657423,2.40518865 3.48771879,2.57633322 3.48771879,2.78723864 C3.48771879,2.99814407 3.31657423,3.16842427 3.1056688,3.16842427 L1.90679248,3.16842427 C1.27580494,3.16842427 0.763235612,3.68185796 0.763235612,4.3128455 L0.763235612,15.1364427 C0.763235612,15.7674302 1.27580494,16.2808639 1.90679248,16.2808639 L10.0923432,16.2808639 C10.7233307,16.2808639 11.2367644,15.7674302 11.2367644,15.1364427 L11.2367644,4.3128455 C11.2367644,3.68185796 10.7233307,3.16842427 10.0923432,3.16842427 C9.88143773,3.16842427 9.71115753,2.99814407 9.71115753,2.78723864 C9.71115753,2.57633322 9.88143773,2.40518865 10.0923432,2.40518865 C11.1442772,2.40518865 12,3.26091148 12,4.3128455 L12,15.1364427 C12,16.1883767 11.1442772,17.0440996 10.0923432,17.0440996" id="Fill-1" fill="#64B4E6"></path>
                <path d="M10.0923432,17.0440996 L1.90679248,17.0440996 C0.85485846,17.0440996 0,16.1883767 0,15.1364427 L0,4.3128455 C0,3.26091148 0.85485846,2.40518865 1.90679248,2.40518865 L3.1056688,2.40518865 C3.31657423,2.40518865 3.48771879,2.57633322 3.48771879,2.78723864 C3.48771879,2.99814407 3.31657423,3.16842427 3.1056688,3.16842427 L1.90679248,3.16842427 C1.27580494,3.16842427 0.763235612,3.68185796 0.763235612,4.3128455 L0.763235612,15.1364427 C0.763235612,15.7674302 1.27580494,16.2808639 1.90679248,16.2808639 L10.0923432,16.2808639 C10.7233307,16.2808639 11.2367644,15.7674302 11.2367644,15.1364427 L11.2367644,4.3128455 C11.2367644,3.68185796 10.7233307,3.16842427 10.0923432,3.16842427 C9.88143773,3.16842427 9.71115753,2.99814407 9.71115753,2.78723864 C9.71115753,2.57633322 9.88143773,2.40518865 10.0923432,2.40518865 C11.1442772,2.40518865 12,3.26091148 12,4.3128455 L12,15.1364427 C12,16.1883767 11.1442772,17.0440996 10.0923432,17.0440996 Z" id="Stroke-3" stroke="#64B4E6" stroke-width="0.5"></path>
                <path d="M7.36881078,11.0332085 C5.90198084,11.0332085 4.41786357,9.92681943 4.41786357,7.80998589 L4.41786357,1.44306231 C4.41786357,1.2010397 4.61407477,1.0048285 4.85609739,1.0048285 C5.09812,1.0048285 5.2943312,1.2010397 5.2943312,1.44306231 L5.2943312,7.80998589 C5.2943312,9.4220294 6.36960311,10.1558765 7.36881078,10.1558765 C7.90817547,10.1558765 8.40950803,9.95447915 8.78032126,9.58798776 C9.20558957,9.16704128 9.43118922,8.55161234 9.43118922,7.80998589 L9.43118922,2.09652338 C9.43032486,0.357418 7.14234676,0.372976597 7.14321112,2.09652338 L7.14321112,7.12713636 C7.14321112,7.50313578 7.33250738,7.63624822 7.49500828,7.63624822 C7.65750918,7.63624822 7.84680545,7.50313578 7.84680545,7.12713636 L7.84680545,2.09652338 C7.84680545,1.85450076 8.04301664,1.6574252 8.28503926,1.6574252 C8.52706187,1.6574252 8.72327307,1.85450076 8.72327307,2.09652338 L8.72327307,7.12713636 C8.72327307,8.94749219 6.26587913,8.94749219 6.26587913,7.12713636 L6.26587913,2.09652338 C6.26587913,-0.692787287 10.3076568,-0.704888418 10.3076568,2.09652338 L10.3076568,7.80998589 C10.3076568,8.79104186 9.99302744,9.62169805 9.39661456,10.2120604 C8.86070734,10.7410527 8.14069005,11.0332085 7.36881078,11.0332085" id="Fill-5" fill="#64B4E6"></path>
                <path d="M7.36881078,11.0332085 C5.90198084,11.0332085 4.41786357,9.92681943 4.41786357,7.80998589 L4.41786357,1.44306231 C4.41786357,1.2010397 4.61407477,1.0048285 4.85609739,1.0048285 C5.09812,1.0048285 5.2943312,1.2010397 5.2943312,1.44306231 L5.2943312,7.80998589 C5.2943312,9.4220294 6.36960311,10.1558765 7.36881078,10.1558765 C7.90817547,10.1558765 8.40950803,9.95447915 8.78032126,9.58798776 C9.20558957,9.16704128 9.43118922,8.55161234 9.43118922,7.80998589 L9.43118922,2.09652338 C9.43032486,0.357418 7.14234676,0.372976597 7.14321112,2.09652338 L7.14321112,7.12713636 C7.14321112,7.50313578 7.33250738,7.63624822 7.49500828,7.63624822 C7.65750918,7.63624822 7.84680545,7.50313578 7.84680545,7.12713636 L7.84680545,2.09652338 C7.84680545,1.85450076 8.04301664,1.6574252 8.28503926,1.6574252 C8.52706187,1.6574252 8.72327307,1.85450076 8.72327307,2.09652338 L8.72327307,7.12713636 C8.72327307,8.94749219 6.26587913,8.94749219 6.26587913,7.12713636 L6.26587913,2.09652338 C6.26587913,-0.692787287 10.3076568,-0.704888418 10.3076568,2.09652338 L10.3076568,7.80998589 C10.3076568,8.79104186 9.99302744,9.62169805 9.39661456,10.2120604 C8.86070734,10.7410527 8.14069005,11.0332085 7.36881078,11.0332085 Z" id="Stroke-7" stroke="#64B4E6" stroke-width="0.5"></path>
            </g>
        </g>
    </g>
</svg>