<?xml version="1.0" encoding="UTF-8"?>
<svg width="15px" height="15px" viewBox="0 0 15 15" version="1.1" xmlns="http://www.w3.org/2000/svg" xmlns:xlink="http://www.w3.org/1999/xlink">
    <title>Group 3</title>
    <defs>
        <polygon id="path-1" points="0 0 15 0 15 15 0 15"></polygon>
    </defs>
    <g id="一斉配信" stroke="none" stroke-width="1" fill="none" fill-rule="evenodd">
        <g id="PH-FUM-B-1-04.メッセージ・コンテンツ設定画面＜メッセージ追加時＞" transform="translate(-683.000000, -811.000000)">
            <g id="Group-3" transform="translate(683.000000, 811.000000)">
                <mask id="mask-2" fill="white">
                    <use xlink:href="#path-1"></use>
                </mask>
                <g id="Clip-2"></g>
                <path d="M8.57577779,8.57574704 L13.9242222,8.57574704 C14.5183743,8.57574704 15,8.09412305 15,7.49997311 C15,6.90603832 14.5183743,6.42430675 13.9242222,6.42419918 L8.57577779,6.42419918 L8.57577779,1.07577393 C8.57567021,0.481731566 8.09404449,0 7.5,0 C6.90584793,0 6.42422221,0.481731566 6.42422221,1.07577393 L6.42422221,6.42419918 L1.07588537,6.42419918 C0.481733293,6.42419918 0,6.90582316 0,7.49997311 C0,7.79699429 0.120379534,8.06593777 0.315095314,8.26065285 C0.509703516,8.45536793 0.77875554,8.57574704 1.07577779,8.57574704 L6.42422221,8.57574704 L6.42422221,13.9242799 C6.42432979,14.221301 6.54470932,14.4902445 6.73931753,14.684852 C6.93403331,14.8795671 7.20297775,15.0000538 7.5,15.0000538 C8.09415207,15.0000538 8.57577779,14.5182146 8.57577779,13.9241723 L8.57577779,8.57574704 Z" id="Fill-1" fill="#999999" mask="url(#mask-2)"></path>
            </g>
        </g>
    </g>
</svg>