<?xml version="1.0" encoding="UTF-8"?>
<svg width="22px" height="23px" viewBox="0 0 22 23" version="1.1" xmlns="http://www.w3.org/2000/svg" xmlns:xlink="http://www.w3.org/1999/xlink">
    <title>github</title>
    <defs>
        <path d="M7.71288867,18.0720325 C5.56129698,18.71751 4.69187324,18.3758861 3.61582202,17.043527 C3.54447983,16.9551916 3.24537332,16.5754885 3.16534116,16.4765916 C2.5222867,15.68196 2.0077649,15.2509645 1.24277218,15.0597163 C0.706977271,14.9257675 0.164042781,15.2515282 0.0300940536,15.7873232 C-0.103854673,16.3231181 0.221906021,16.8660525 0.757700929,17.0000013 C0.988085364,17.0575974 1.21963861,17.2515608 1.61064216,17.7347295 C1.67985417,17.8202558 1.9781517,18.1989319 2.05989115,18.3001412 C3.6141159,20.2245714 5.29560159,20.8852799 8.28758444,19.9876851 C8.81657729,19.8289872 9.11676069,19.2715037 8.95806284,18.7425109 C8.79936498,18.213518 8.24188152,17.9133346 7.71288867,18.0720325 Z M21.5002366,8.54985878 C21.49997,7.09983986 21.0107208,5.69873798 20.1213086,4.56847813 C20.4629326,3.26731444 20.3638647,1.88295571 19.8293689,0.635909864 C19.7122501,0.362657088 19.4796223,0.155682736 19.1946015,0.0711426667 C19.1373281,0.0541547881 19.0674789,0.0387830107 18.98516,0.0268338524 C18.045324,-0.109589718 16.6675652,0.261451606 14.8212034,1.43270559 C12.6376204,0.914398248 10.3628527,0.914398248 8.17926967,1.43270559 C6.33290789,0.261451606 4.95514907,-0.109589718 4.01531315,0.0268338524 C3.93299417,0.0387830107 3.86314503,0.0541547881 3.80587161,0.0711426667 C3.5208508,0.155682736 3.28822297,0.362657088 3.17110422,0.635909864 C2.63661031,1.88295135 2.53754119,3.26730476 2.87916093,4.56846448 C1.98225573,5.70819754 1.49247786,7.12305661 1.50015957,8.58517484 C1.50015957,13.196403 3.56002329,15.4510113 7.30088914,16.3094716 C7.06118687,16.912638 6.9561589,17.5682777 7.00270075,18.230018 L7.00023655,22.0298588 C7.00023655,22.5821435 7.4479518,23.0298588 8.00023655,23.0298588 C8.5525213,23.0298588 9.00023655,22.5821435 9.00023655,22.0298588 L9.00023655,18.1598588 C8.95056321,17.4184715 9.19090245,16.758817 9.65884061,16.2752782 C10.2325166,15.6824764 9.88213828,14.6891628 9.0634933,14.587484 C5.26879077,14.1161674 3.50023655,12.6290566 3.50023655,8.57985878 C3.49411959,7.42656024 3.9328997,6.32083436 4.72448713,5.48939565 C4.98837115,5.21222679 5.07092703,4.80876101 4.93712037,4.45021794 C4.64966889,3.67997428 4.60397797,2.84600065 4.79744247,2.05742272 C4.86765131,2.07328921 4.94465325,2.09300365 5.02862078,2.1171755 C5.67299196,2.30267149 6.47603847,2.69202973 7.44343169,3.3405021 C7.68389486,3.5016917 7.9824106,3.55076552 8.26182101,3.47503937 C10.3825122,2.90028699 12.6179609,2.90028699 14.7386521,3.47503937 C15.0180625,3.55076552 15.3165782,3.5016917 15.5570414,3.3405021 C16.5244346,2.69202973 17.3274811,2.30267149 17.9718523,2.1171755 C18.0558199,2.09300365 18.1328218,2.07328921 18.2030306,2.05742272 C18.3964951,2.84600065 18.3508042,3.67997428 18.0633527,4.45021794 C17.9295487,4.80875409 18.0120986,5.21221191 18.2759719,5.48938083 C19.0616985,6.31469751 19.5000271,7.41051905 19.5002366,8.55004259 C19.5002366,12.637553 17.7182954,14.1359203 13.9494576,14.5560137 C13.1234259,14.6480873 12.7637238,15.6491599 13.3422483,16.245914 C13.8158905,16.7344808 14.0566825,17.4030629 14.0033166,18.0814333 L14.0002366,22.0298588 C14.0002366,22.5821435 14.4479518,23.0298588 15.0002366,23.0298588 C15.5525213,23.0298588 16.0002366,22.5821435 16.0002366,22.0298588 L16.0002366,18.1598588 C16.0510444,17.5349393 15.9486271,16.892866 15.7096375,16.2930486 C19.4300698,15.4682192 21.5002366,13.1920065 21.5002366,8.54985878 Z" id="path-1"></path>
    </defs>
    <g id="🕹-Icons" stroke="none" stroke-width="1" fill="none" fill-rule="evenodd">
        <g id="Feather" transform="translate(-166.000000, -668.000000)">
            <g id="github" transform="translate(165.999763, 667.970141)">
                <mask id="mask-2" fill="white">
                    <use xlink:href="#path-1"></use>
                </mask>
                <use id="Shape" fill="#000000" fill-rule="nonzero" xlink:href="#path-1"></use>
                <g id="🎨Color" mask="url(#mask-2)" fill="#000000">
                    <g transform="translate(-0.999763, -0.970141)" id="Rectangle">
                        <rect x="0" y="0" width="24" height="24"></rect>
                    </g>
                </g>
            </g>
        </g>
    </g>
</svg>